/* XPM */
static char *_2d391ebda3c4a9abbf45ef0ef24e819LMGZHABNu1K9f311[] = {
/* columns rows colors chars-per-pixel */
"64 64 214 2 ",
"   c None",
".  c #FFA000",
"X  c #FFA808",
"o  c #FFA908",
"O  c #FFA809",
"+  c #FFAA09",
"@  c #FFAB09",
"#  c #FFA90B",
"$  c #FFAA0A",
"%  c #FFAB0A",
"&  c #FFAA0B",
"*  c #FFAB0B",
"=  c #FFAC0A",
"-  c #FFAC0B",
";  c #FFAD0B",
":  c #FFAB0D",
">  c #FFAC0C",
",  c #FFAD0C",
"<  c #FFAC0D",
"1  c #FFAD0D",
"2  c #FFAF0C",
"3  c #FFAE0D",
"4  c #FFAF0D",
"5  c #FFAD0E",
"6  c #FFAE0E",
"7  c #FFAF0E",
"8  c #FFAE0F",
"9  c #FFAF0F",
"0  c #FFB300",
"q  c #FFB00D",
"w  c #FFB00E",
"e  c #FFB00F",
"r  c #FFB10F",
"t  c #FFAE10",
"y  c #FFAF10",
"u  c #FFB010",
"i  c #FFB110",
"p  c #FFB011",
"a  c #FFB111",
"s  c #FFB210",
"d  c #FFB211",
"f  c #FFB311",
"g  c #FFB112",
"h  c #FFB013",
"j  c #FFB212",
"k  c #FFB312",
"l  c #FFB213",
"z  c #FFB313",
"x  c #FFB411",
"c  c #FFB511",
"v  c #FFB412",
"b  c #FFB413",
"n  c #FFB513",
"m  c #FFB214",
"M  c #FFB314",
"N  c #FFB414",
"B  c #FFB514",
"V  c #FFB415",
"C  c #FFB515",
"Z  c #FFB614",
"A  c #FFB714",
"S  c #FFB615",
"D  c #FFB715",
"F  c #FFB416",
"G  c #FFB516",
"H  c #FFB616",
"J  c #FFB716",
"K  c #FFB617",
"L  c #FFB717",
"P  c #FFB915",
"I  c #FFB816",
"U  c #FFB916",
"Y  c #FFB817",
"T  c #FFB917",
"R  c #FFBA17",
"E  c #FFB718",
"W  c #FFB31C",
"Q  c #FFB818",
"!  c #FFB918",
"~  c #FFB819",
"^  c #FFB919",
"/  c #FFBA18",
"(  c #FFBA19",
")  c #FFBB19",
"_  c #FFB91A",
"`  c #FFBA1A",
"'  c #FFBB1A",
"]  c #FFBB1B",
"[  c #FFBC19",
"{  c #FFBC1A",
"}  c #FFBD1A",
"|  c #FFBC1B",
" . c #FFBD1B",
".. c #FFBE1B",
"X. c #FFBB1C",
"o. c #FFBC1C",
"O. c #FFBD1C",
"+. c #FFBD1D",
"@. c #FFBE1C",
"#. c #FFBE1D",
"$. c #FFBF1D",
"%. c #FFBD1E",
"&. c #FFBE1E",
"*. c #FFBF1E",
"=. c #FFBF1F",
"-. c #FFA624",
";. c #FFA724",
":. c #FFA725",
">. c #FFA923",
",. c #FFAA23",
"<. c #FFAD23",
"1. c #FFA824",
"2. c #FFA924",
"3. c #FFA825",
"4. c #FFA925",
"5. c #FFAA24",
"6. c #FFAB24",
"7. c #FFAA25",
"8. c #FFAB25",
"9. c #FFA926",
"0. c #FFAA26",
"q. c #FFAB26",
"w. c #FFAC24",
"e. c #FFAD24",
"r. c #FFAC25",
"t. c #FFAD25",
"y. c #FFAF24",
"u. c #FFAE25",
"i. c #FFAF25",
"p. c #FFAC26",
"a. c #FFAD26",
"s. c #FFAE26",
"d. c #FFAF26",
"f. c #FFAE27",
"g. c #FFAF27",
"h. c #FFB220",
"j. c #FFB223",
"k. c #FFB422",
"l. c #FFB523",
"z. c #FFB025",
"x. c #FFB125",
"c. c #FFB224",
"v. c #FFB225",
"b. c #FFB325",
"n. c #FFB026",
"m. c #FFB126",
"M. c #FFB027",
"N. c #FFB127",
"B. c #FFB226",
"V. c #FFB326",
"C. c #FFB227",
"Z. c #FFB327",
"A. c #FFB525",
"S. c #FFB625",
"D. c #FFB426",
"F. c #FFB526",
"G. c #FFB427",
"H. c #FFB527",
"J. c #FFB626",
"K. c #FFB726",
"L. c #FFB727",
"P. c #FFB825",
"I. c #FFB826",
"U. c #FFB926",
"Y. c #FFB827",
"T. c #FFB927",
"R. c #FFBA26",
"E. c #FFBA27",
"W. c #FFBD26",
"Q. c #FFBC27",
"!. c #FFBD27",
"~. c #FFBE26",
"^. c #FFBE27",
"/. c #FFBF27",
"(. c #FFBB28",
"). c #FFBD28",
"_. c #FFBF28",
"`. c #FFBF29",
"'. c #FFC01E",
"]. c #FFC11E",
"[. c #FFC01F",
"{. c #FFC11F",
"}. c #FFC21F",
"|. c #FFC020",
" X c #FFC120",
".X c #FFC121",
"XX c #FFC220",
"oX c #FFC221",
"OX c #FFC321",
"+X c #FFC122",
"@X c #FFC222",
"#X c #FFC322",
"$X c #FFC323",
"%X c #FFC421",
"&X c #FFC422",
"*X c #FFC423",
"=X c #FFC523",
"-X c #FFC127",
";X c #FFC226",
":X c #FFC227",
">X c #FFC524",
",X c #FFC624",
"<X c #FFC625",
"1X c #FFC725",
"2X c #FFC527",
"3X c #FFC827",
"4X c #FFC028",
"5X c #FFC228",
"6X c #FFC428",
"7X c #FFC628",
"8X c #FFC828",
"9X c #FFCA28",
"0X c #FFD54F",
"qX c #FFF8E1",
/* pixels */
"                                                                                                                                ",
"                                                      . . . . . . . . . . .                                                     ",
"                                              . . . . . . . . . . . . . . . . . . .                                             ",
"                                          . . . . . . >X*X#.#.G u u u I G ' . . . . . .                                         ",
"                                    . . . . . 9X9X9X3X3X#.G G 6 : 6 : + u v #.#.OX>X. . . . .                                   ",
"                                  . . . . 9X9X9X9X9X7X$XOX' u 6 + + + + u u [ G #.' %.%.. . . .                                 ",
"                              . . . . 9X9X9X9X9X9X9X3XOX~.G 6 ; t 6 ; ; ; 6 G [.' G m u u u . . . .                             ",
"                            . . . 9X9X9X9X9X9X9X9X9X>XOX*Xv u r 6 + + o + r r v G G u u 6 r r G . . .                           ",
"                          . . . 9X9X9X9X9X9X9X9X9X9X>X[.[ G v 6 6 ; + + ; + 6 u u t t t u 6 u v ' . . .                         ",
"                        . . qXqX9X9X9X9X9X9X9X9X9X9X>X#.#.#.u 6 6 + X o + ; v u ' t u u u u u r u G ' . .                       ",
"                      . . qXqX9X9X9X9X9X9X9X9X9X9X9X9X>XOX#.u u ; r + 6 r r u I I G u u u r 6 6 r u G [ . .                     ",
"                    . . qXqX9X9X9X9X9X9X9X9X9X9X9X9X9X9X>XOXG ' r u r v G R G G I ' u G r q q r r u ' #.OX. .                   ",
"                  . . qXqX9X9X9X9X9X9X9X9X9X9X9X9X9X9X9X. . . . . . . . . W l.[ #.G G u v u u r v ' ' OX3X9X. .                 ",
"                . . qXqX9X9X9X9X9X9X9X9X9X9X9X9X9X. . . . . . . . . . . . . . . W #.' u v G u ' [ #.>X>X9X9X9X. .               ",
"              . . . qX9X9X9X9X9X9X9X9X9X9X9X9X. . . . . y.s.s.s.l.H.H.m.H.. . . . . ~.#.I [ #.[ OX>X>X9X9X9X9X. . .             ",
"              . . qXqX9X9X9X9X9X9X9X9X9X9X9X. . . m.R.m.s.s.s.m.m.m.y.s.s.s.6.m.. . . >X>X>X*X>X>X9X9X9X9X9X9X9X. .             ",
"            . . qXqX9X9X9X9X9X9X9X9X9X9X. . . H.R.m.H.s.s.6.6.s.m.M.6.f.6.>.y.H.(.$X. . . 9X9X9X9X9X9X9X9X9X9X9X9X. .           ",
"          . . . qX9X9X9X9X9X9X9X9X9X9X. . . H.s.m.s.m.s.s.s.s.s.s.f.6.6.6.>.s.H.).7X7X. . . 9X9X9X9X9X9X9X9X9X9X9X. . .         ",
"          . . 9X9X9X9X9X9X9X9X9X9X9X. . . s.s.6.s.s.s.s.s.6.s.s.s.6.6.-.6.6.s.H.5X7X9X9X. . . 9X9X9X9X9X9X9X9X9X9X9X. .         ",
"          . . 9X9X9X9X9X9X9X9X9X9X. . . s.s.s.6.s.s.6.s.6.s.s.s.6.6.-.6.-.6.m.(.7X9X9X9X9X. . . 9X9X9X9X9X9X9X9X9X9X. .         ",
"        . . 9X9X9X9X9X9X9X9X9X9X9X. . 6.6.6.s.6.s.s.6.s.6.f.q.s.6.6.6.6.>.s.H.5X5X9X9X9X9X9X. . 9X9X9X9X9X9X9X9X9X9X0 . .       ",
"        . . 9X9X9X9X9X9X9X9X9X9X. . q.6.6.6.6.6.f.m.6.f.f.f.6.q.-.-.-.6.y.m.$X).9X7X9X9X9X9X9X. . 9X9X9X9X9X9X9X9X9X0 . .       ",
"      . . 9X9X9X9X9X9X9X9X9X9X. . s.6.6.6.s.f.f.s.m.6.q.6.q.6.6.6.6.6.f.s.R./.5X9X9X9X9X9X9X9X9X. . 9X9X9X9X9X9X9X9X0 0 . .     ",
"      . . 9X9X9X9X9X9X9X9X9X9X. . s.-.6.6.6.m.s.m.m.f.f.f.6.6.6.6.-.6.m.m.).7X9X9X9X9X9X9X9X9X9X. . 9X9X9X9X9X9X9X9X0 0 . .     ",
"      . . 9X9X9X9X9X9X9X9X9X. . s.6.-.6.6.6.M.s.m.m.s.m.s.6.6.6.6.9.m.H.).>X5X7X9X9X9X9X9X9X9X9X9X. . 9X9X9X9X9X9X9X0 0 . .     ",
"      . . 9X9X9X9X9X9X9X9X9X. . 6.6.-.9.6.s.f.s.m.s.s.s.s.s.6.6.-.6.M.R./.5X9X7X9X9X9X9X9X9X9X9X9X. . 9X9X9X9X9X9X9X0 0 . .     ",
"    . . 9X9X9X3X9X3X9X9X9X7X. . 6.q.q.6.6.6.s.s.f.6.s.s.m.s.6.-.q.f.R.).5X9X9X9X9X9X9X9X9X9X9X9X9X. . 9X9X9X9X9X9X9X0 0 . . .   ",
"    . . 9X9X1X3X1X3X3X3X9X. . 6.q.6.q.6.6.6.m.s.f.0X0Xm.s.s.6.6.f.L.0X0X0X0X0X9X9X9X9X9X9X9X9X9X9X9X. . 9X9X9X9X9X9X0 0 . . .   ",
"    . . 9X9X3X*X1X1X1X1X3X. . s.q.f.6.s.s.6.s.6.s.0X0Xs.s.s.6.6.M.R.0X0X0X0X0X0X9X9X9X9X9X9X9X9X9X9X. . 9X9X9X9X9X9X0 0 . . .   ",
"    . . 3X9X3X*X*X1X3X*X9X. . s.f.f.s.s.6.s.m.6.s.0X0Xf.6.6.s.m.R.).0X0X9X9X0X0X9X9X9X9X9X9X9X9X9X9X. . 9X9X9X9X9X9X0 0 . . .   ",
"    . . >XOX[.#.[.[.*X*X9X. . s.M.s.M.m.s.m.s.6.6.0X0Xf.-.6.s.H.(.5X0X0X9X9X9X0X0X9X9X9X9X9X9X9X9X9X. . 9X9X9X9X9X9X0 0 . . .   ",
"    . . *X#.' ' ].[ }.*X9X. . m.M.s.H.s.6.s.s.6.6.0X0X6.6.6.m.).5X7X0X0X9X9X9X0X0X9X9X9X9X9X9X9X9X9X. . 9X9X9X9X9X9X0 0 . . .   ",
"    . . [.[ ~.#.[.[.*X*X>X. . m.m.s.m.m.6.f.f.6.6.0X0X6.6.s.H.).9X9X0X0X9X9X9X0X0X9X9X9X9X9X9X9X9X9X. . 9X9X9X9X9X9X0 0 . . .   ",
"    . . [ ].[.#.[ ' #.OX*X. . m.H.m.m.m.s.s.q.q.6.0X0Xs.6.H.R.).7X9X0X0X9X9X9X0X0X9X9X9X9X9X9X9X9X9X. . 9X9X9X9X9X9X0 0 . . .   ",
"    . . [.[ ' ' #.I [ #.>X. . j.H.m.m.s.6.6.9.-.6.0X0Xs.m.R.).5X7X9X0X0X9X9X9X0X0X9X9X9X9X9X9X9X9X9X. . 9X9X9X9X9X9X0 0 . . .   ",
"    . . OX[ ' ' ' G [.[ [.. . R.R.m.m.m.6.6.9.6.6.0X0Xs.).).7X9X7X9X0X0X9X9X0X0X9X9X9X9X9X9X9X9X9X9X. . 9X9X9X9X9X9X0 0 0 . .   ",
"    . . %.' ' #.I ' [ [.[.3X. . H.H.m.j.6.9.9.-.q.0X0X0X0X0X9X9X9X9X0X0X0X0X0X0X9X9X9X9X9X9X9X9X9X. . 9X9X9X9X9X9X9X0 0 0 . .   ",
"      . . #.' ' [ ' [ #.OX3X. . H.R.m.H.q.-.6.9.-.0X0X0X0X0X9X9X9X9X0X0X0X0X0X9X9X9X9X9X9X9X9X9X9X. . 9X9X9X9X9X9X9X0 0 0 .     ",
"      . . #.' [ ' ' #.#.~.[.. . H.H.s.m.9.6.6.6.s.s.(.(.5X7X7X9X9X9X9X9X9X9X9X9X9X9X9X9X9X9X9XqXqX. . 9X9X9X9X9X9X0 0 0 . .     ",
"      . . OX>X[.[ G I ' #.OX>X. . H.j.s.6.6.6.6.m.H.(.(.7X9X7X9X9X9X9X9X9X9X9X9X9X9X9X9X9X9X9XqX. . 9X9X9X9X9X9X9X0 0 0 . .     ",
"      . . >X' #.' OXOX[.OXOXOX. . H.m.6.6.6.6.s.m.R.).5X7X9X9X9X9X9X9X9X9X9X9X9X9X9X9X9X9X9XqXqX. . 9X9X9X9X9X9X9X0 0 0 . .     ",
"        . . #.#.OX#.[ ' #.#.[.R.. . s.6.6.s.s.H.L.(.).$X7X9X9X9X9X9X9X9X9X9X9X9X9X9X9X9X9XqXqX. . 9X9X9X9X9X9X9X0 0 0 0 .       ",
"        . . #.#.G G ' I u I ' OXOX. . 6.s.m.m.H.L.).$X7X9X9X9X9X9X9X9X9X9X9X9X9X9X9X9X9XqXqX. . 9X9X9X9X9X9X9X9X0 0 0 . .       ",
"          . . OXG ' v I G OX#.[.~.. . . s./.R./.).5X7X9X9X9X9X9X9X9X9X9X9X9X9X9X9X9X9XqXqX. . . 9X9X9X9X9X9X9X0 0 0 0 .         ",
"          . . G G ' [ G I I ' %.OXOX. . . $XL.R.5X).9X9X9X9X9X9X9X9X9X9X9X9X9X9X9X9XqXqX. . . 9X9X9X9X9X9X9X0 0 0 0 . .         ",
"          . . . E ' v G u u G ' ~.>X>X. . . m./.7X5X9X7X9X9X9X9X9X9X9X9X9X9X9X9X9XqXqX. . . 9X9X9X9X9X9X9X9X0 0 0 0 . .         ",
"            . . ' m I I u I G [ I [ #.>X. . . 5X>X9X9X9X9X9X9X9X9X9X9X9X9X9X9XqXqXqX. . . 9X9X9X9X9X9X9X9X0 0 0 0 . .           ",
"              . . ' G G u v r r G I [ #.[.>X. . . 9X9X9X9X9X9X9X9X9X9X9X9X9X9XqX. . . 9X9X9X9X9X9X9X9X9X0 0 0 0 . .             ",
"              . . . I m v v v u u ' [.*X3X9X3X. . . . . 9X9X9X9X9X9X9X9X9X. . . . . 9X9X9X9X9X9X9X9X9X0 0 0 0 0 . .             ",
"                . . G u u u r G #.#.[ [.[.*X1X9X9X. . . . . . . . . . . . . . . 9X9X9X9X9X9X9X9X9X9X0 0 0 0 0 . .               ",
"                  . . ' ' G I [ ' [ #.[ [.*X3X9X3X3X9X9X. . . . . . . . . 9X9X9X9X9X9X9X9X9X9X9X0 0 0 0 0 . . .                 ",
"                    . . ' ' I m G #.[ #.[.[.*X*X3X3X9X9X9X9X9X9X9X9X9X9X9X9X9X9X9X9X9X9X9X9X9X0 0 0 0 0 . . .                   ",
"                      . . [.[ [ #.' I ' #.#.>X9X3X9X9X9X9X9X9X9X9X9X9X9X9X9X9X9X9X9X9X9X9X9X0 0 0 0 0 . . .                     ",
"                        . . I I [ [ [ OX*X>X9X9X9X9X9X9X9X9X9X9X9X9X9X9X9X9X9X9X9X9X9X9X0 0 0 0 0 . . . .                       ",
"                          . . . [ [.[.*X3X3X9X9X9X9X9X9X9X9X9X9X9X9X9X9X9X9X9X9X9X9X9X0 0 0 0 0 . . . .                         ",
"                            . . . *X>X3X3X3X9X9X9X9X9X9X9X9X9X9X9X9X9X9X9X9X9X9X9X0 0 0 0 0 0 . . . .                           ",
"                              . . . . 9X9X9X9X9X9X9X9X9X9X9X9X9X9X0 0 0 0 0 0 0 0 0 0 0 0 0 . . . .                             ",
"                                  . . . . 9X9X0 0 0 0 0 0 0 0 0 0 0 0 0 0 0 0 0 0 0 0 . . . . .                                 ",
"                                    . . . . . 0 0 0 0 0 0 0 0 0 0 0 0 0 0 0 0 0 . . . . . . .                                   ",
"                                          . . . . . . . . . . . . . . . . . . . . . . .                                         ",
"                                              . . . . . . . . . . . . . . . . . . .                                             ",
"                                                      . . . . . . . . . . .                                                     ",
"                                                                                                                                ",
"                                                                                                                                "
};
