/* XPM */
static char *_efe25fe27a4433cf73cf48856649de86stqvipcfmHQDLMs[] = {
/* columns rows colors chars-per-pixel */
"64 64 7 1 ",
"  c None",
". c gray13",
"X c #3E2723",
"o c #4E342E",
"O c #5D4037",
"+ c #6D4C41",
"@ c #795548",
/* pixels */
"                                                                ",
"                          @@@@@@@@@@@                           ",
"                      @@@@+++++++++++@@@@                       ",
"                    @@++++OOOOOOOOOOO++++@@                     ",
"                  @@++OOOOoooooooooooOOOO++@@                   ",
"                @@++OOOoooXXXXXXXXXXXoooOOO++@@                 ",
"               @++OOoooXXXX.........XXXXoooOO++@                ",
"             @@+OOooXXX.................XXXooOO+@@              ",
"            @++OOoXXX.....................XXXoOO++@             ",
"           @++OooXX.........................XXooO++@            ",
"          @+OOooX.............................XooOO+@           ",
"         @+OOoXX...............................XXoOO+@          ",
"        @++OoXX.................................XXoO++@         ",
"        @+OoXX...................................XXoO+@         ",
"       @+OooX.....................................XooO+@        ",
"      @++OoX.......................................XoOO+@       ",
"      @++oX.........................................XoO+@       ",
"     @+OoXX.........................................XXoO+@      ",
"     @+OoX...........................................XoO+@      ",
"    @+OoXX...........................................XXoO+@     ",
"    @+OoX.............................................XoO+@     ",
"   @+OOoX.............................................XoOO+@    ",
"   @+OoX...............................................XoO+@    ",
"   @+OoX...............................................XoO+@    ",
"   @+OoX...............................................XoO+@    ",
"  @+OoXX...............................................XXoO+@   ",
"  @+OoX.................................................XoO+@   ",
"  @+OoX.................................................XoO+@   ",
"  @+OoX.................................................XoO+@   ",
"  @+OoX.................................................XoO+@   ",
"  @+OoX.................................................XoO+@   ",
"  @+OoX.................................................XoO+@   ",
"  @+OoX.................................................XoO+@   ",
"  @+OoX.................................................XoO+@   ",
"  @+OoX.................................................XoO+@   ",
"  @+OoXX...............................................XXoO+@   ",
"   @+OoX...............................................XoO+@    ",
"   @+OoX...............................................XoO+@    ",
"   @+OoX...............................................XoO+@    ",
"   @+OOoX.............................................XoOO+@    ",
"    @+OoX.............................................XoO+@     ",
"    @+OoXX...........................................XXoO+@     ",
"     @+OoX...........................................XoO+@      ",
"     @+OoXX.........................................XXoO+@      ",
"      @+OoX.........................................XoO+@       ",
"      @+OOoX.......................................XoOO+@       ",
"       @+OooX.....................................XooOO@        ",
"        @+OoXX...................................XXoO+@         ",
"        @++OoXX.................................XXoO++@         ",
"         @+OOoXX...............................XXoOO+@          ",
"          @+OOooX.............................XooOO+@           ",
"           @++OooXX.........................XXooO++@            ",
"            @++OOoXXX.....................XXXoOO++@             ",
"             @@+OOooXXX.................XXXooOO+@@              ",
"               @++OOoooXXXX.........XXXXoooOO++@                ",
"                @@++OOOoooXXXXXXXXXXXoooOOO++@@                 ",
"                  @@++OOOOoooooooooooOOOO++@@                   ",
"                    @@++++OOOOOOOOOOO++++@@                     ",
"                      @@@@+++++++++++@@@@                       ",
"                          @@@@@@@@@@@                           ",
"                                                                ",
"                                                                ",
"                                                                ",
"                                                                "
};
