/* XPM */
static char *a5ae7bbc7f764c94ce884d694fb2ac25tEFhjbigNo38ZLfo[] = {
/* columns rows colors chars-per-pixel */
"64 64 29 1 ",
"  c None",
". c gray13",
"X c #3E2723",
"o c #4E342E",
"O c #5D4037",
"+ c #6D4C41",
"@ c #795548",
"# c gray46",
"$ c #DD2C00",
"% c #FFAB40",
"& c #FFB74D",
"* c #FFBB60",
"= c #FFC167",
"- c #FFC370",
"; c #FFC673",
": c #FFC778",
"> c #FFC97A",
", c #FFC87B",
"< c #FFC97B",
"1 c #FFCA7C",
"2 c #FFCA7E",
"3 c #FFCA7F",
"4 c #FFCB7F",
"5 c #FFCC7F",
"6 c #FFCA80",
"7 c #FECB80",
"8 c #FFCB80",
"9 c #FFCC80",
"0 c #EFEBE9",
/* pixels */
"                                                                ",
"                          @@@@@@@@@@@                           ",
"                      @@@@+++++++++++@@@@                      0",
"                    @@++++OOOOOOOOOOO++++@@                     ",
"                  @@++OOOOoooooooooooOOOO++@@                   ",
"                @@++OOOoooXXXXXXXXXXXoooOOO++@@                 ",
"               @++OOoooXXXX.........XXXXoooOO++@                ",
"             @@+OOooXXX.................XXXooOO+@@              ",
"            @++OOoXXX.....................XXXoOO++@             ",
"           @++OooXX.........................XXooO++@            ",
"          @+OOooX.............................XooOO+@           ",
"         @+OOoXX...............................XXoOO+@          ",
"        @++OoXX.................................XXoO++@         ",
"     %%%***%%-%%*%%*%%%%%%%%%%%%%%%%%%%%&&&&&&&&&&&&&%%-:*%%    ",
"     %%3:5333>;3&;;;=>**%*:%%%%&&&&&&&&&%*%*-:*->::%&&>3835%    ",
"     %*38>333>*3>3:5--3333>=&==*%%%%%%*-:-3>*:>>>38:*3953533    ",
"     *>#&&&&&&&&&&&&&&&3>;-3333-:%:**->:8-::=;3>8333*355#333    ",
"     >333553>33>3:*-*>-&&&&&>:3-3>3533&&&&&&&&&&&&&&&&&33533    ",
"     -535353:*>::-::3->85335&&&&&&&&&&3388>>3>:3&&&&&&355353    ",
"    @3353&&&&&&&&&&&&&&&&&&&&33535339533&&&&&&&&33535&&&353;    ",
"    @35#&&5>%%&&&&&&&&&&:>333&&&&&&&&&&&-3--*3*>3:353553338>    ",
"   @+%5333&&&&&&&&&&&&&&&&&&&&&&&3533:>*--3>;=;&;&&&&3335#38    ",
"   @+%%>:-&&&&&&&&&&&&&%%%>88-83&&&&&&&&&&&&&&&&&&:*533533:>    ",
"   @+%%%%%%%%%%%%%%%%%%%%%**>::-%-*::-3:%:>*%%%****-**>33;9>    ",
"   @+OoX...............................................Xoo+@    ",
"  @+OoXX...............................................XooO+@   ",
"  @+OoX.................................................Xoo+@   ",
"  @+%%%%%%%%%%%%33333:*%%%%*%$$$$$%%>**-%%**-***%%%%%%%%%%%%%%  ",
"  @+%&&&>=;;&=&>5>3535:3333$$$$$$$$$:3:338839&&&&&&&&&&&3>>%%%  ",
"  @+%%&&&&&&&-*;53535393>:$$$$$$$$$$$&&&&&&&&&3>-3&&&&&8533;%%  ",
"  @+%>33#:33>&&&&&&&&&&&&&$$$$$$$$$$$3933853>85:3>3335&&&&&#5;  ",
"  @+*83359&&&&&&&&3533353$00000000000$&&&&&&&&&&&&&&&&&&355559  ",
"  @+;3&&&3>39>->>&&&&3>38$00000000000$5335333>3:3353353&&&5353  ",
"  @+>5355&&&&&&&&&&&&&&&&$00000000000$853-&&&&&&&&&&&5535&3535  ",
"  @+33533533:***-:::->3>8>$$$$$$$$$$$>&&&&&&&&&=;&>33&&533535*  ",
"  @+333#533&&&&&:&&=;=>;3:$$$$$$$$$$$&&=%%%%%%%%%%--*--&353#33  ",
"   @%3>&&&&&&&&&&&&&&&&&&&&$$$$$$$$$&&%%%%%%%%%%%%%%%%%%&::9*%  ",
"   @%%>:-%%%%%%%%%%%%%%%%%%%%$$$$$%%%%%%%%%%%%%%%%%%%%%%%%%%%%  ",
"   @+OoX...............................................XoO+@    ",
"   @+OOoX.............................................XoOO+@    ",
"    @+OoX.............................................XoO+@     ",
"    @+OoXX...........................................XXoO+@     ",
"    %%%%%%%%%**%%%*%**>:**%*%%*:*%%%>33*%%%%%%%%%%%%%*%:*>3**   ",
"    %%%:;=;>&3;>=>33333:>53:::**%*:85353=&&&&&%%%%%%%3>*35#::   ",
"    %*#&&&&&&&&&&&&&&&&&&&&>*-:*335353&&&&&&&&&&&&>>35353535>   ",
"    :>385>33333353535335333&&&&&&*3&&&&5535333-:3&&&&&&&&3538   ",
"    53&&&&&&&&5>:3533*>339:33-*>>&&35353353;33>533:5355353353   ",
"    35353533>&&&&&&&&3>3>>>>&&&&&&&&&&&&&&&&&&&&&&&&&&&5355338  ",
"    3535333-:**%%*%%%&&&&&&&%%>%*%*%35359>3:>&&&&&&&&&&3355335  ",
"    53&&&&&&&&&&&&&&&&&&&&&&&&&&&&&&&=;&;=>&&&3=3333-&&&#3333   ",
"    35#35&&&&&&&&&&&&&&&&%%%%%%%%%&&&&&&&&&%%***:-*=&&3>&&5>%   ",
"    %-3;%%%%%%%%%%%%%%%%%%%%%%%%%%%%%%%%%%%%%%%%%%%%%%%;3:%%%   ",
"            @++OOoXXX.....................XXXoOO++@             ",
"             @@+OOooXXX.................XXXooOO+@@              ",
"               @++OOoooXXXX.........XXXXoooOO++@                ",
"                @@++OOOoooXXXXXXXXXXXoooOOO++@@                 ",
"                  @@++OOOOoooooooooooOOOO++@@                   ",
"                    @@++++OOOOOOOOOOO++++@@                     ",
"                      @@@@+++++++++++@@@@                       ",
"                          @@@@@@@@@@@                           ",
"                                                                ",
"                                                                ",
"                                                                ",
"                                                                "
};
