/* XPM */
static char *fb3efbb70c6a4153a853409589aa7b91Nmnp9hwFcF2qcepG[] = {
/* columns rows colors chars-per-pixel */
"64 64 124 2 ",
"   c #1B5F1E",
".  c #1C631F",
"X  c #1E6422",
"o  c #1F6822",
"O  c #206724",
"+  c #226B25",
"@  c #266629",
"#  c #246E29",
"$  c #2A6D2D",
"%  c #257127",
"&  c #26722A",
"*  c #29752C",
"=  c #2B7A2E",
"-  c #2E6E32",
";  c #2E7532",
":  c #2D7D31",
">  c #317435",
",  c #317B35",
"<  c #377538",
"1  c #3B743D",
"2  c #367D39",
"3  c #3A7C3C",
"4  c #3E7740",
"5  c #3E7C40",
"6  c #427C44",
"7  c #2F8132",
"8  c #328435",
"9  c #338936",
"0  c #36843A",
"q  c #3A833C",
"w  c #368B39",
"e  c #388E3C",
"r  c #37903B",
"t  c #3A923D",
"y  c #3E8441",
"u  c #3D8A41",
"i  c #3D9441",
"p  c #3E9A42",
"a  c #418344",
"s  c #428A45",
"d  c #458348",
"f  c #49864B",
"g  c #468949",
"h  c #4B8C4D",
"j  c #429345",
"k  c #439B45",
"l  c #469549",
"z  c #4A934C",
"x  c #479D4A",
"c  c #4A9C4C",
"v  c #518D52",
"b  c #4E9251",
"n  c #4E9D52",
"m  c #519454",
"M  c #519E53",
"N  c #58925A",
"B  c #43A146",
"V  c #46A049",
"C  c #44A349",
"Z  c #46A648",
"A  c #47A44A",
"S  c #46A64A",
"D  c #47A74C",
"F  c #49A24C",
"G  c #49A34D",
"H  c #49A44C",
"J  c #4BA64D",
"K  c #4CA74F",
"L  c #47A84A",
"P  c #48A84B",
"I  c #48A94C",
"U  c #4AAB4E",
"Y  c #4BAF4F",
"T  c #4CAE4F",
"R  c #4CB04F",
"E  c #4DA051",
"W  c #4FA253",
"Q  c #4EAA51",
"!  c #4FAB53",
"~  c #4CAF50",
"^  c #4FAC52",
"/  c #51A256",
"(  c #52A555",
")  c #51A654",
"_  c #50AD53",
"`  c #51AB54",
"'  c #51AE54",
"]  c #55A559",
"[  c #54A659",
"{  c #55A759",
"}  c #5AA55C",
"|  c #56AB59",
" . c #56AD59",
".. c #58AD5B",
"X. c #58AD5D",
"o. c #5BAE5F",
"O. c #4EB051",
"+. c #4FB051",
"@. c #4FB052",
"#. c #4EB152",
"$. c #4FB152",
"%. c #53B155",
"&. c #52B255",
"*. c #54B357",
"=. c #55B358",
"-. c #5BB05D",
";. c #5BB15D",
":. c #5BB35E",
">. c #5F9461",
",. c #5CB160",
"<. c #5DB161",
"1. c #5DB261",
"2. c #5EB761",
"3. c #5FB463",
"4. c #5EB860",
"5. c #61AB64",
"6. c #65A468",
"7. c #60B663",
"8. c #63B466",
"9. c #63B766",
"0. c #60B963",
"q. c #63BA66",
"w. c #66B56A",
"e. c #66BB6A",
/* pixels */
"e.e.e.e.e.e.e.e.e.e.e.e.e.e.=.~ ~ ~ ~ ~ @.q.e.e.e.e.e.=.*.e.e.q.e.q.q.2.=.=.=.q.4.4.q.%.=.=.q.%.%.e.%.e.q.q.e.e.e.e.e.q.@.~ ~ ~ ",
"q.e.e.e.e.e.e.e.e.e.e.e.e.e.q.~ Y ~ ~ ~ @.e.e.e.e.e.=.=.q.~ O.=.*.q.%.$.=.q.e.e.e.=.=.=.e.e.=.=.=.@.@.=.=.q.q.e.e.e.%.$.~ ~ ~ ~ ",
"q.e.e.e.e.e.e.q.e.e.e.e.e.*.0.~ Y ~ @.O.%.e.e.e.e.e.e.e.~ ~ ~ ~ *.O.=.=.~ ~ $.=.@.*.%.~ @.Y %.@.~ ~ @.R @.=.q.e.q.e.$.e.~ ~ ~ q.",
"=.e.e.q.e.q.e.e.e.e.e.q.q.*.q.=.R Y O.3.e.q.e.e.e.e.e.@.~ ~ ~ ~ O.=.e.~ ~ ~ ~ ~ =.%.@.Y @.Y @.Y Y ~ Y O.O.@.e.q.q.=.=.e.$.~ ~ q.",
"=.e.e.q.q.q.e.=.e.e.0.0.0.@.*.%.=.Y 4.=.$.e.q.q.e.e.q.q.@.O.O.Y e.%.~ ~ ~ ~ ~ ~ R T R Y ~ ~ T R Y ~ ~ ~ ~ %.q.e.=.e.e.=.=.=.2.e.",
"~ e.=.e.q.=.e.e.e.e.e.=.=.=.e.*.=.=.=.=.=.=.e.q.q.=.=.e.q.~ O.q.=.q.$.~ ~ ~ ~ O.q.*.T @.~ ~ R q.q.~ ~ ~ q.e.q.*.e.e.~ e.=.q.q.=.",
"~ ~ =.=.*.e.e.~ e.=.=.*.=.~ Y T =.~ q.^ ~ q.$.e.q.q.e.%.@.@.%.=.=.$.~ ~ O.O.Y $.@.@.=.~ ~ ~ @.@.~ O.O.~ q.*.e.q.e.~ ~ ~ e.=.e.e.",
"~ ~ ~ @.e.e.~ ~ ~ e.=.e.~ ~ ~ ~ ~ =.$.~ ~ ~ q.~ e.q.4.q.q.@.=.=.^ $.~ ~ Y ^ $.=.e.=.T T R T R =.~ %.Y Y O.@.*.q.~ ~ ~ ~ ~ =.e.e.",
"~ ~ @.=.e.~ ~ ~ ~ ~ =.~ ~ ~ ~ ~ Y Y ~ ~ ~ ~ ~ =.#.e.2.=.$.2.2.Y 2.*.@.O.~ ~ ~ ~ ~ Y ~ ~ ~ ~ T T #.~ Y Y ~ ~ $.q.e.~ O.~ q.e.e.e.",
"~ Y q.q.q.e.~ ~ ~ e.q.q.~ ~ ~ T R q.q.O.~ ~ ~ ~ =.$.=.*.4.Y Y Y O.2.*.O.~ ~ e.=.e.q.~ ~ ~ ~ ~ e.3.~ ~ O.^ ~ $.q.e.e.O.e.q.e.e.e.",
"~ e.4.=.e.*.e.@.q.*.=.=.0.~ T R %.O.3.%.~ ~ ~ ~ #.*.$.$.$.O.O.Y ~ ~ O.D ~ ~ q.%.=.=.e.~ ~ ~ q.*.e.e.O.Y ~ 2.e.e.=.=.=.e.e.e.e.e.",
"%.e.=.@.e.=.=.=.e.e.e.%.@.T ~ *.@.~ ~ =.$.~ ~ ~ ~ #.O.Y Y O.I ~ ~ ~ D x 9 9 9 C 9.$.~ ~ @.%.e.=.e.*.*.O.e.2.q.=.e.e.2.e.=.*.e.e.",
"q.e.@.=.e.~ e.%.e.=.%.q.@.*.7.~ ~ Y Y Y @.=.Y ~ ~ *.*.$.Y Y I D A k 8 8 8 7 7 B G 9.=.4.2.=.@.@.*.*.*.=.e.$.*.e.=.e.e.q.e.e.e.e.",
"e.e.e.e.~ ~ ~ e.=.q.q.@.*.q.D U ~ ~ I A @.%.$.O.! *.#.#.Y S I C 8 8 8 8 8 8 7 p C U %.4.e.@.q.e.4.e.e.e.=.=.$.#.e.=.e.q.e.e.e.e.",
"e.e.e.@.~ ~ ~ ~ =.e.@.e.9.A D i ~ Q Q W o.^ =.Q D ! ~ ~ R D D D w w w w w 9 w A U q.2.' ' =.e.q.q.e.e.e.e.=.O.Y ! e.$.e.q.e.e.e.",
"e.e.q.e.~ ~ ~ e.e.=.e.e.~ Y : = 7 e 8 8 8 q.X.x [ C U U A C D 7 8 9 r e r w w C e.2.~ ' ,.Y =.~ e.,.e.e.3.Y Y Y O.O.=.=.e.e.e.e.",
"e.%.e.e.e.@.q.q.e.e.e.~ ~ k * ; & = 7 8 w 8 8 W p p U Y D C p 8 8 8 w e w w 8 A | Q Y <.D D Y %.L ,.q.q.<.3.O.~ ~ ~ O.=.e.e.e.e.",
"e.e.e.=.=.%.e.e.e.e.~ ~ @.A e : % & 7 : w w w 7 7 p Y D D p 7 7 8 9 e e w 8 8 n / D ` S C Y A A k X. .Q 3.<.q.~ ~ ~ e.e.e.e.e.e.",
"e.e.e.4.q.q.=.=.=.%.e.O.A p i * ; * # * : w 7 8 7 i B I B C 8 u 9 e e e w 8 8 A X.| A k 8 w 9 w w 7 w 9.^ ^ *.%.~ e.*.e.e.e.e.e.",
"e.e.q.q.=.=.e.e.=.e.e.=.I D W n 7 = : 7 o * * : = = 7 p p p 8 8 e w r w w 8 8 x k e 8 8 8 8 8 0 7 w q.e e e.*.%.! O.*.e.q.e.e.e.",
"e.e.e.@.e.e.@.e.=.e.%.' G ( X.~ i i 9 & = * * & = 8 = 9 p i 7 9 w e e w 8 8 7 w = & = 9 8 w w e 8 u 7 r u 9 q.@.3.e.~ =.=.e.q.e.",
"e.e.%.e.e.@.Y R e.%.3.( 8 8 8 8 7 7 = # : : 8 8 9 9 = & : i 7 8 r e e e 9 = & * + # % 8 w e w r w k ; 7 <.[ O.e.e.~ ~ ~ q.*.e.e.",
"e.e.e.e.~ ~ ~ ~ ~ =.3.3.c 8 7 e 9 7 = 9 * & * u u 7 = # o & & 7 w e e 9 8 = + % = % 8 e 8 8 8 + # o u u l [ [ <.#.O.~ ~ O.*.e.e.",
"e.e.e.~ ~ ~ ~ ~ =.o.[ n j j * : 9 u i w 7 & & 7 7 : : * o o & 8 w e w 7 * % + + + = w 8 & * & = * : u [ <.[ <.O.Y O.~ ~ =.e.e.e.",
"e.e.*.e.O.O.Y e.-./ l 0 0 > , , & i u 9 9 7 & & 7 = 7 7 % + & 7 e w 8 = = * % % 7 e 8 + + + % * : C i <.e.<.*.e.O.Y O.e.q.e.e.e.",
"e.*.e.e.%.O.$.2.q.Q [ n j u ; ; & & 8 7 9 9 7 & = & # & % & o + 8 8 = % * = 7 8 e e e & & & 8 9 i t o.e.2.*.*.e.*.Y $.e.e.e.e.e.",
"e.e.e.*.*.*.e.%.=.=.Q e.{ o.; @ * & o & 7 7 7 & 7 & o # & + o o % % + % % = 9 r 9 e r + * * 9 r B C e.e.*.e.3.$.*.&.3.e.*.*.e.e.",
"e.e.e.e.e.q.*.*.@.O.e.*.<.W X.7 # & o + o % + & + & & o o o o . . + % + * = r 8 = 7 * = & 9 k B R O.e.*.e.*.~ e.O.e.e.$.=.e.e.e.",
"e.e.e.e.e.e.e.*.~ ~ ~ e.$.<.E / i y o # & 7 & & & & o o # o o o O o % + % % = % & = * % & r C O.R %.e.e.=.~ ~ ~ e.$.e.q.e.q.e.e.",
"e.e.e.e.e.e.e.O.~ ~ ~ ~ =.=.<.o.7 7 7 = 7 9 7 & 9 7 & o & & o + % % % O o o o . X + o o + & 7 e R O.e.e.~ ~ ~ ~ O.*.^ q.q.e.e.e.",
"e.e.e.e.e.e.e.e.~ ~ ~ ~ ~ =.3.w 7 u u 9 i 9 i i 9 9 9 & & % % & % o o o o . + o + = = & * 8 e e t r r e e.~ ~ ~ O.~ &.=.e.*.e.e.",
"e.e.e.e.e.*.e.q.q.O.~ ~ e.<.W 8 = [ 8 i 7 i u 8 p i i & & % o o . o O % o o % = : e e 8 8 e e e e 7 *.e.e e ~ ~ ~ ~ ~ #.=.e.e.q.",
"e.e.e.e.e.e.=.=.*.%.@.e.4.4.e 9 ; = 8 8 * 8 r : = 7 % + % % . . o . X . . X + = 7 e e e e e u 7 B : i *.~ e e ~ ~ ~ ~ e.e.~ e.=.",
"e.e.e.e.e.e.e.e.=.*.%.*.*.*.; + % @ + # & e = + % + + + o + o + o O O . . . O + o : e e e 8 0 # o o o 8 7 Q =.%.~ ~ e.e.~ ~ ~ e.",
"e.e.e.e.e.e.e.e.e.e.4.e.@.@.9 7 # & w * # : + % + % % + % + + + & % % X O O % + o & 8 B : o o o o - , u [ [ C =.' =.=.~ ~ ~ ~ ~ ",
"e.e.e.e.e.e.e.q.e.e.e.=.*.<.t u 8 i = , # * % % % 7 7 = 8 * + = 7 8 & % % = : = & ; p % X o o # & ; p p W C ~ ~ q.=.~ ~ ~ ~ ~ =.",
"e.e.e.e.e.e.q.e.e.e.=.e.e.A t e i l r 7 + , * = 9 9 e t 8 * % 7 9 7 = + % = 7 8 : p & o # o # & p l ] ! A ~ ~ ~ ~ @.q.~ ~ O.e.q.",
"q.e.e.e.4.q.e.=.e.e.q.e.~ ~ A i i j 8 # + @ * e w r e 9 * & & = 9 e , % % : 8 9 e 7 * ; # = w r G ~ ,.~ e.~ ~ ~ =.q.q.=.~ %.q.q.",
"e.e.e.q.q.=.*.e.e.e.e.@.~ ~ Y B k l c e % : e e e r e e e * * t k 9 : % % = 7 9 e e 7 ; & @.F A ! e.~ ~ ~ =.~ e.q.e.@.=.%.e.e.*.",
"=.e.4.q.@.e.e.@.e.*.4.@.Y Q F j k k k k = 8 r e e e e i : & % : e e 9 = = 8 t e e e r r A w ~ Q e.~ ~ ~ ~ ~ ~ e.e.=.e.e.~ e.O.*.",
"e.e.e.*.e.e.O.~ T *.%.%.e.Q Q G l A k = = ; 8 e e e 8 t # O O , 8 e e , F 8 = e , e : 8 i 8 e ~ e.O.Y O.@.$.=.e.=.=.e.~ ~ ~ e.=.",
"@.@.*.4.e.@.Y O.~ R @.@.=.Q | Y A F k , & e B e i e ; * O X O $ 8 = e e e , * # + + O O # @ : e W ,.~ O.~ e.e.e.e.e.~ ~ ~ ~ ~ =.",
"@.O.O.%.~ ~ Y ~ R *.*.e.@.Y ~ A Z w 8 w # ; k 8 * + + + > ; $ # # * 9 e .   + . X X X       X # = C *.O.=.O.e.2.q.q.e.~ ~ ~ e.e.",
"@.R R O.q.~ ~ ~ e.q.e.R @.R A i t k e = + # * X . O . % 2 3 $ + . X X . O . @ , - > # # @ @ - $ & = x I e.*.=.q.=.e.e.e.~ e.q.e.",
"$.#.*.e.e.*.O.=.:.e.q.@.~ A i k e s G u + X X @ + + - q 6 g a + + O O .   $ - g a x 7 9 q , q t u p Q ( L L @.=.q.q.=.=.=.e.e.e.",
"@.2.4.e.*.*.*.,.e.%.*.e.~ ~ D l l h 6.b # + * - > 3 < ; a y y * : O % % O ; u h z a 0 8 , q s l p n n p t i L =.=.e.e.e.q.e.=.=.",
"*.e.e.e.e.2.2.e.%.~ e.' *.~ ,.i l b m b 6 4 g 3 q 5 s 4 1 d g q < 8 * > , < 2 y j q 8 8 9 0 w z } n r r t B k A =.e.e.e.e.e.e.e.",
"e.#.#.=.e.2.*.O.e.e.q.=.=.*.e.A s N >.v v h b f d d y 6 1 4 5 4 3 u s z , q e 3 3 a q 3 w w y h g s l r B p A e.e.e.e.e.e.e.e.e.",
"e.e.e.e.e.$.=.e.~ ~ =.$.2.2.<.x l m b z h h h h s c z d f 6 < 3 3 a m s u e q e j w j c l k l z c k n o.~ D q.q.e.e.q.q.q.e.q.e.",
"e.e.e.e.*.e.e.#.~ ~ $.^ =.e.e.<.] } ] M H @.x h b M 5.z / c j s j z J M c J k k c c c ( w.=.e.Q ~ Q Q @.~ =.e.e.q.q.q.e.q.e.q.e.",
"e.e.e.e.e.e.~ Y ~ ~ ~ ~ @.*.*.q.o.*.~ D *.~ ~ A Q J ) U T R *.k Q G ~ Q / Q Y A @.R ~ =.*.0.e.e.e.e.e.q.q.=.=.$.' q.%.%.%.q.=.q.",
"e.e.e.e.q.~ ~ Y ~ ~ ~ =.*.e.e.e.e.=.=.=.R Y T `  .5.w.' @.T R Q Q ) T Q Q 9.Y R R R Y R @.e.q.e.e.e.q.=.e.e.e.e.=.=.=.q.=.e.=.e.",
"e.e.e.e.*.*.O.O.Y Y ~ ~ @.~ ~ $.=.q.q.~ ~ ~ Y @.T %.%.*.e.q.T T T R T R Y Y @.@.O.~ ~ ~ @.=.q.e.e.e.=.e.e.~ e.~ =.%.~ Y O.=.~ q.",
"e.e.e.*.e.e.*.O.@.~ ~ ~ O.~ ~ @.=.=.~ ~ ~ ~ ~ Y *.q.e.e.e.T T Y R T T R @.R %.%.Y ~ ~ ~ ~ @.e.e.e.e.e.e.~ ~ ~ e.=.~ ~ Y @.Y ~ ~ ",
"e.e.e.e.e.*.*.*.O.~ ~ ~ ~ ~ ~ ~ @.%.q.~ ~ ~ @.q.e.e.e.9.4.4.R Y T R @.Y q.*.q.%.Y Y ~ ~ ~ =.e.e.e.e.e.~ ~ ~ ~ ~ O.~ ~ ~ ~ ~ ~ ~ ",
"e.e.e.e.e.e.e.2.q.~ ~ ~ ~ ~ ~ ~ =.%.e.e.~ ~ q.4.e.*.q.%.%.%.%.R R T T %.4.4.@.%.~ Y @.Y *.e.e.e.e.e.q.e.~ ~ ~ q.q.~ ~ ~ ~ ~ ~ ~ ",
"e.e.e.e.e.e.=.=.%.*.~ @.~ ~ ~ q.9.e.=.%.@.%.e.*.e.e.e.=.*.%.~ ~ @.%.%.q.=.%.T e.*.%.@.%.*.e.e.e.e.=.e.e.e.@.=.=.=.2.R ~ Y ~ ~ ~ ",
"e.e.e.e.e.e.e.e.=.$.~ ~ ~ @.%.e.e.e.e.e.q.q.@.@.=.~ =.@.*.T ~ ~ Y R ~ ~ %.~ R T ~ @.@.q.*.=.e.e.e.e.e.=.=.%.e.e.%.$.Y O.Y =.Y e.",
"e.e.e.e.e.e.e.e.e.e.q.q.=.@.@.@.~ =.e.e.e.e.e.e.~ ~ Y e.T @.~ ~ ~ ~ =.=.e.~ T R ~ ~ %.*.=.=.e.e.e.e.e.e.e.q.e.=.*.$.q.@.Y ~ Y =.",
"e.e.e.e.e.e.e.e.e.e.e.e.e.e.e.e.e.e.e.e.e.e.e.@.~ ~ Y @.T Y ~ ~ ~ ~ ~ =.~ ~ ~ ~ ~ ~ @.*.e.e.e.e.e.e.e.e.e.e.e.e.*.=.e.O.~ ~ ~ ~ ",
"e.e.e.e.e.e.e.e.e.e.e.e.e.e.e.e.e.e.e.e.e.e.q.e.~ ~ ~ q.~ ~ ~ ~ ~ ~ e.q.q.~ ~ ~ ~ ~ e.e.e.e.e.e.e.e.e.e.e.e.e.e.=.e.Y @.~ ~ ~ ~ ",
"e.e.e.e.e.e.e.e.e.e.e.e.e.e.e.e.e.e.e.e.e.=.e.e.e.Y =.*.=.~ ~ ~ ~ q.*.=.=.e.~ ~ @.q.q.e.e.e.e.e.e.e.e.e.e.e.e.e.e.~ Y T T ~ ~ ~ ",
"e.e.e.e.e.e.e.e.e.e.e.e.e.e.e.e.e.e.e.e.e.e.e.=.=.*.e.=.@.~ ~ @.*.e.e.e.=.@.~ @.*.e.e.e.e.e.e.e.e.e.e.e.e.e.e.e.%.@.Y Y ~ ~ ~ ~ ",
"e.e.e.e.e.e.e.e.e.e.e.e.e.e.e.e.e.e.e.e.e.e.e.e.e.q.e.=.=.q.q.%.%.~ @.=.e.e.q.q.%.@.@.=.e.e.e.e.e.e.e.e.e.e.e.%.q.e.Y @.T *.T e."
};
