/* XPM */
static char *_ee5038e9bcc4cd0ce2f3fca93f4e764M4xGekj55j5pNZTG[] = {
/* columns rows colors chars-per-pixel */
"16 16 2 1 ",
"  c #0E692E",
". c #54C17D",
/* pixels */
". . ..... . ....",
" . . ... . . ...",
".. ... ... ... .",
"................",
" ... . . ... . .",
"... . . ... . . ",
"..... ....... ..",
"................",
". . ..... . ....",
" . . ... . . ...",
".. ... ... ... .",
"................",
" ... . . ... . .",
"... . . ... . . ",
"..... ....... ..",
"................"
};
