/* XPM */
static char *bf92b2f64caa43f481666fb6aca76738ffqWwWyKO2cjUnkY[] = {
/* columns rows colors chars-per-pixel */
"64 64 108 2 ",
"   c None",
".  c black",
"X  c #0C0000",
"o  c #2C0000",
"O  c #2A2A2A",
"+  c gray17",
"@  c #BF1313",
"#  c #BB1616",
"$  c #BD1414",
"%  c #BD1515",
"&  c #BE1414",
"*  c #BF1414",
"=  c #BE1515",
"-  c #BC1616",
";  c #BD1616",
":  c #BC1717",
">  c #BD1717",
",  c #BE1616",
"<  c #B71A1A",
"1  c #B61B1B",
"2  c #B71B1B",
"3  c #B91818",
"4  c #B81919",
"5  c #B91919",
"6  c #BA1818",
"7  c #BB1818",
"8  c #BA1919",
"9  c #BB1919",
"0  c #B81A1A",
"q  c #B91A1A",
"w  c #B81B1B",
"e  c #BA1A1A",
"r  c #BA1B1B",
"t  c #BC1818",
"y  c #CF0606",
"u  c #C30F0F",
"i  c #C60F0F",
"p  c #CB0808",
"a  c #C80A0A",
"s  c #CA0A0A",
"d  c #CA0B0B",
"f  c #C80C0C",
"g  c #D20303",
"h  c #D50000",
"j  c #C11111",
"k  c #C21111",
"l  c #C11212",
"z  c #C01313",
"x  c #C11313",
"c  c #C41010",
"v  c #C01414",
"b  c #DF3A3A",
"n  c #E66767",
"m  c #EC8A8A",
"M  c #ED9494",
"N  c #EE9494",
"B  c #F0A1A1",
"V  c #F0A5A5",
"C  c #F1ACAC",
"Z  c #F2ACAC",
"A  c #F2B3B3",
"S  c #F3B6B6",
"D  c #C3C3C3",
"F  c gray77",
"G  c gray78",
"H  c #C8C8C8",
"J  c gray79",
"K  c #CACACA",
"L  c #CBCBCB",
"P  c gray80",
"I  c #CDCDCD",
"U  c #CECECE",
"Y  c gray81",
"T  c #D0D0D0",
"R  c gray82",
"E  c #D2D2D2",
"W  c LightGray",
"Q  c gray83",
"!  c #D5D5D5",
"~  c gray84",
"^  c #D7D7D7",
"/  c #D8D8D8",
"(  c gray85",
")  c gray86",
"_  c gainsboro",
"`  c #DDDDDD",
"'  c #F7CECE",
"]  c #F7D2D2",
"[  c #F8D2D2",
"{  c #F9DCDC",
"}  c gray88",
"|  c #E1E1E1",
" . c #E2E2E2",
".. c #E4E4E4",
"X. c gray90",
"o. c #E6E6E6",
"O. c gray92",
"+. c #FBE3E3",
"@. c #FBE9E9",
"#. c #FCE9E9",
"$. c #FCECEC",
"%. c #FCEEEE",
"&. c gray94",
"*. c #F1F1F1",
"=. c #FDF0F0",
"-. c #FDF1F1",
";. c #F8F8F8",
":. c white",
/* pixels */
"                                                                                                                                ",
"                                                                                                                                ",
"                                                                                                                                ",
"                                                                                                                                ",
"                                                                                                                                ",
"                                                                                                                                ",
"                                                                                                                                ",
"                                                                                                                                ",
"                                                                                                                                ",
"                                                                                                                                ",
"                                                                                                                                ",
"                                                                                                                                ",
"                                                                                                                                ",
"                                                        . . . . . . . . .                                                       ",
"                                                  . . . h h h h h h h h h . . .                                                 ",
"                                              . . h h h h h h h h h h h h h h h . .                                             ",
"                                            . h h h h h h h h h h h h h h h h h h h .                                           ",
"                                          . h h h h h h h h h h h h h h h h h h h h h .                                         ",
"                                        . h h h h n h h h h h h h h h h h h h h h h h h .                                       ",
"                                      . h h b b m A n h h h h h h h h h h h h h h h h h h .                                     ",
"                                    . h h b Z ' @.] S n h h h h h h h h h h h h h h h h g g .                                   ",
"                                  . h h b S +.@.-.-.V h h h h h h h h h h h h h h h h h y - - .                                 ",
"                                . h h h b B [ %.@.{ N b h h h h h h h h h h h h h h h g k 7 7 - .                               ",
"                                . h h h h b N m Z N b h h h h h h h h h h h h h h h h y k 7 7 w .                               ",
"                              . h h h h h h b h b b h h h h h h h h h h h h h h h h h p - t w 7 7 .                             ",
"                              . h h h h h h h h h h h h h h h h h h h h h h h h h h g c - - 7 7 7 .                             ",
"                              . h h h h h h h h h h h h h h h h h h h h h h h h h g y g c 7 2 7 t .                             ",
"                            . h h h h h h h h h h h h h h h h h h h h h h h h h g y v - t t 7 - - k .                           ",
"                            . h h h h h h h h h h h h h h h h h h h h h h h h g g c - - - 7 2 7 7 v .                           ",
"                            . h h h h h h h h h h h h h h h h h h h h h g h h p k v t 7 < 2 < 7 - d .                           ",
"                            . h h h h h h h h h h h h h h h h h h h g h p k - - 7 - < < 7 2 2 < t k .                           ",
"                            . . h h h h h h h h h h h h h h h h h h i k 7 2 7 7 2 < 7 < 2 7 7 7 k p .                           ",
"                            . . . h h h h h h h h h h h h h h h g g k 7 7 2 w < 2 < 2 2 2 2 7 - p . .                           ",
"                            + :.. . . h h h h h h h h . . . . . . k t w < 7 w 2 2 2 7 7 < 7 - . . . .                           ",
"                            . o.:.. . . h h h h h h . . P P P P . X d t 7 7 2 7 t 7 t 7 7 . . . . O..                           ",
"                            . *.:.:.. . . . h h h . . P :.:.:.:.P . . # 7 - 7 - - X . . . . . . *.*..                           ",
"                              . ;.:.;.. . . . . . . P :.:.:.:.:.:.P . X o o X . . . . . . . ` *.} +                             ",
"                              . } *.*.:.:.. . . . . P :.:.:.:.:.:.P . . . . . . . . . . . ;.} *.*..                             ",
"                              . :.} *.;.:.:.:.:.:.. . P :.:.:.:.P . . . . . . . . ;.` ~ o.O.:.} *..                             ",
"                                . ` O.O.;.:.:.:.:.:.. . P P P P . . :.:.:.:.:.:.` ( o.( ( ~ O.O..                               ",
"                                . O.P } *.:.:.:.:.:.:.. . . . . . :.:.:.:.:.:.:.;.} ( O.} ~ ~ o..                               ",
"                                  . o.( O.:.;.:.:.:.:.:.:.:.:.:.:.:.:.:.:.;.*.;.( *.O.} O.( ( +                                 ",
"                                    . O.` o.*.;.:.:.:.:.:.:.:.:.:.:.:.:.:.} P ~ o.( ~ o.( *..                                   ",
"                                      . o.J o.} :.*.:.*.:.*.:.;.:.;.:.*.;.;.} J ~ P P R o..                                     ",
"                                        . P ~ J *.R *.( *.( O.*.;.} *.~ ~ } o.;.G ( J ~ +                                       ",
"                                          . ~ R ( P R } ` O.R o.*.:.} ~ P P R ~ } P o..                                         ",
"                                            . P J ~ G P ~ o.*.` } *.~ R R J R J P o..                                           ",
"                                              . . P o.J J P R P J P P D J ` G P . .                                             ",
"                                                  . . . R J R J ~ J P ~ J . . .                                                 ",
"                                                        . . . . . . . . .                                                       ",
"                                                                                                                                ",
"                                                                                                                                ",
"                                                                                                                                ",
"                                                                                                                                ",
"                                                                                                                                ",
"                                                                                                                                ",
"                                                                                                                                ",
"                                                                                                                                ",
"                                                                                                                                ",
"                                                                                                                                ",
"                                                                                                                                ",
"                                                                                                                                ",
"                                                                                                                                ",
"                                                                                                                                "
};
