/* XPM */
static char *_d78190f112d4866ee6177a436bde126VybJHEr8CAfhJUH4[] = {
/* columns rows colors chars-per-pixel */
"64 64 58 1 ",
"  c None",
". c #3E2723",
"X c #422925",
"o c #452B26",
"O c #442C27",
"+ c #482D27",
"@ c #452D28",
"# c #472E28",
"$ c #482D29",
"% c #492F29",
"& c #4B2F2A",
"* c #6D4C3F",
"= c #6D4C40",
"- c #6D4C41",
"; c #7F5F52",
": c #7F5E54",
"> c #825E52",
", c #805F54",
"< c #815F55",
"1 c #836054",
"2 c #836256",
"3 c #836257",
"4 c #826357",
"5 c #846256",
"6 c #846257",
"7 c #836258",
"8 c #836358",
"9 c #846358",
"0 c #846359",
"q c #836559",
"w c #856458",
"e c #856459",
"r c #846559",
"t c #856559",
"y c #85645A",
"u c #85655A",
"i c #85655B",
"p c #87665A",
"a c #86675A",
"s c #86665B",
"d c #87675B",
"f c #87665C",
"g c #87665D",
"h c #89685D",
"j c #88695D",
"k c #89695E",
"l c #8B6B60",
"z c #8D6E63",
"x c #C99E67",
"c c #DBAE6E",
"v c #DBAE6F",
"b c #E0B472",
"n c #E3B672",
"m c #E8BC76",
"M c #EBBE77",
"N c #ECBE76",
"B c #F5C77B",
"V c #FFD180",
/* pixels */
"                                                                ",
"                                                                ",
"                                                                ",
"                                                                ",
"                                                                ",
"                                                                ",
"                                                                ",
"                                                                ",
"                                                                ",
"                                                                ",
"                                                                ",
"                                                                ",
"                                                                ",
"                                                  ..........    ",
"                   .....XXoo.X              .......-====-*-..   ",
"                  .oNNBBBBNNVo$X.         ...------zzllhhkl-.   ",
"                 XXnNNBBVVVVVBNNoX.       .--lzzzzzzzlhp*ph=.   ",
"                 oBnNNVVVVVVVVVBNB.      ..klklzzzlzlpy**ph=.   ",
"                onBBVVVVVVVVVVVBN--.    ..*hukklzlllhpy=**p=.   ",
"                oNVVVVVVVVVVVVBB*X..    .-kkpjlzljkkppp=***=..  ",
"               X-NNBVVVVBVVVNcv=..... ..zzkkllzzzlklll=-l----.. ",
"               .-kNNBBNNMBVBcx=OX.... .-zlkhzzzzzzkll===----z-. ",
"               .-zzklBnnMvcm=$@X......-zkkkkkzzzzzlll==l------..",
"               .-zlkgzzlknNXOXX.......-zzzkkzzzzzluu*===---z-z-.",
"               X-pkuukzzkz-XX.........-zzzkzzzzzkhpk-****----z-.",
"              X@*uuujk**z--..........--zzzzzzzzzzkpk*-**-----z-.",
"              .*-kkpkkk----...........--zzzzzzzzkkk--****--z---.",
"             Xoo+Okzzkkkk*-............-zzzzzzzzzzz--**z-------.",
"             oNNBo.X.Xo+O*==...........-zzlkkzzzzzh***-----...-.",
"           oXNNNBBBNBBNcOX.*...........-zluyhkkkzww>p*----....-.",
"         XXoBBVVBBBBBmmbnNoooo.........-lpuyyhzzh5>>p---........",
"        XoBBVVVVVVVBBBBBNBBNNo..........-kpphzzkh>5wz--.........",
"      .oNmVVVVVVVVVVVVVVBBBnnn..........*zkkzzzzppkl--......... ",
"      .NNBVVVVVVVVVVVVVVVVVBBB............X..zkhkk---.......... ",
"     .*pnBVVVVVVVVVVVVVVVVVNNN.....---zzzzzz..Xhh*-X..........  ",
"     .-pmBVVVVVVVVVVVVVVVVBNNX...-----zzzzzzzzXzk.............  ",
"    .=upcBBBVVVVVVVVVVVVVVNnnX..------zzzzzzzz.X.............   ",
"    .=llkBbBBVVVVVVVVVVVVBccn..-----*zzlkkzzzzkX.............   ",
"    .*zzjj2cnBVVVVVVVVVBBBnnN..---.X-klkkkkzzkkk.............   ",
"    X-**kud2nBVBVVVVVVVNBnNkX..---X&kkzkkzkzzkkkl...........    ",
"    .---jupkjkBBBVVVVVBnnN.....----*pzzzkkkkzkkkz............   ",
"    .-zkupkkzzkBBmnNNNnn*o.....--*-kpzzzkuhkzzzzzz...........   ",
"    .=zzkkkzzzpk2nnNNNn=*-......---kkzzkkugkzzzzzz...........   ",
"    .=zzzzz-kkkp88**NNN=--......--zkzzzzkkkzzzkzzz......X....   ",
"   ..=zz--zzzkduij=-====--.......-kkzzzzzzzzzkkkzz.....X@X...   ",
"   .=zzzz-zzzzk88l--==-=---.....Xkdkkkzzzzzzkkkklz....X@oMBV..  ",
"   .=zzzkkkzzkd=8g=-=------.......kkzzzzzzzzzzkjzz.....lMBVVB.  ",
"   .==zlkk-jkzkggl---=-=-*-*......zzzzzzzzzzzzkkllz....VBVVBMX. ",
"   .==zlllhjkklll-------*---X......zzzzz==zzzzjkguz...zz*--NNNX ",
"   .==lgglzlkl=zz----------*-....zlzzzzz==*zzzkguukX..z--*-*--. ",
"   .=huuuhzzl==zz----------*-..zzlklzzzz=zzzzzzjyuk...X---*---. ",
"   .*jy:yklz.....--------------zlgkklzz..XXXzzlgw5uX...*-*----. ",
"   .-lu2gll........------*------lugzz...BmMOX..lujkX...-*-----. ",
"   .-lglghkX........------*-*-.XjkukzXVVVBMBVV..zk.*=....*---.. ",
"   .-zlhukkOX.......----------.-kpuzX@BVVVMVVV....zzu---......  ",
"   ...zlkkglX........--------..--dku$MMBVBMBV.....zu<pzz-.      ",
"     .X@kuypkX.......---....-..--zkzXpBVBNNM......u:<<uz-.      ",
"      .X**juhkX......--..--..--.*zk.kjhzzBNl.....Xk2:5kz-.      ",
"      .--*-p-k..........----..-.--zXkhuhzzz.......zl2hkl..      ",
"      .--zzzzz..       ..---........huukkzz.........hjkkX       ",
"      .........         .....       .oklzzz.......  .XOX.       ",
"                                     .Xzzz.......     X.        ",
"                                      ..........                ",
"                                                                "
};
